<?xml version="1.0" encoding="UTF-8" standalone="no"?>
<svg width="312px" height="271px" viewBox="0 0 312 271" version="1.1" xmlns="http://www.w3.org/2000/svg" xmlns:xlink="http://www.w3.org/1999/xlink" xmlns:sketch="http://www.bohemiancoding.com/sketch/ns">
    <!-- Generator: Sketch 3.5.1 (25234) - http://www.bohemiancoding.com/sketch -->
    <title>Logo</title>
    <desc>Created with Sketch.</desc>
    <defs>
        <polygon id="path-1" points="61.3588187 0 122.717637 110.445874 0 110.445874 "></polygon>
        <polygon id="path-3" points="61.3588187 0 122.717637 104.309992 0 104.309992 "></polygon>
    </defs>
    <g id="Page-1" stroke="none" stroke-width="1" fill="none" fill-rule="evenodd" sketch:type="MSPage">
        <g id="Screen-1" sketch:type="MSArtboardGroup" transform="translate(-68.000000, -79.000000)">
            <g id="Logo" sketch:type="MSLayerGroup" transform="translate(11.000000, 2.000000)">
                <path d="M134.901089,77.8851798 L290.671448,77.8851798 L368.556628,212.786268 L290.671448,347.687357 L134.901089,347.687357 L57.0159088,212.786268 L134.901089,77.8851798 L134.901089,77.8851798 Z" id="Polygon-1" fill="#C52D29" sketch:type="MSShapeGroup"></path>
                <path d="M152.004335,103.50924 L275.74462,103.50924 L337.614762,210.67147 L275.74462,317.8337 L152.004335,317.8337 L90.1341928,210.67147 L152.004335,103.50924 L152.004335,103.50924 Z" id="Polygon-1" stroke="#1A232E" stroke-width="3" fill="#FFCA25" sketch:type="MSShapeGroup"></path>
                <g id="Group-4" transform="translate(153.242685, 102.997916)">
                    <g id="Group-6">
                        <mask id="mask-2" sketch:name="Mask" fill="white">
                            <use xlink:href="#path-1"></use>
                        </mask>
                        <use id="Mask" stroke="#1A232E" fill="#C52D29" sketch:type="MSShapeGroup" transform="translate(61.358819, 55.222937) scale(1, -1) translate(-61.358819, -55.222937) " xlink:href="#path-1"></use>
                        <g id="Group-7" mask="url(#mask-2)" stroke-linecap="square" stroke="#1A232E" sketch:type="MSShapeGroup">
                            <g transform="translate(0.000000, 18.407646)" id="Line">
                                <path d="M1.03997998,1.60150376 L121.695589,1.60150376"></path>
                                <path d="M1.03997998,20.8195489 L121.695589,20.8195489"></path>
                                <path d="M1.03997998,40.037594 L121.695589,40.037594"></path>
                                <path d="M1.03997998,62.4586466 L121.695589,62.4586466"></path>
                            </g>
                        </g>
                    </g>
                    <g id="Group-5" transform="translate(0.000000, 110.445874)">
                        <mask id="mask-4" sketch:name="Mask" fill="white">
                            <use xlink:href="#path-3"></use>
                        </mask>
                        <use id="Mask" stroke="#1A232E" fill="#C52D29" sketch:type="MSShapeGroup" xlink:href="#path-3"></use>
                        <g id="Group-7" mask="url(#mask-4)" stroke-linecap="square" stroke="#1A232E" sketch:type="MSShapeGroup">
                            <g transform="translate(0.000000, 20.452940)" id="Line">
                                <path d="M1.03997998,1.60150376 L121.695589,1.60150376"></path>
                                <path d="M1.03997998,20.8195489 L121.695589,20.8195489"></path>
                                <path d="M1.03997998,40.037594 L121.695589,40.037594"></path>
                                <path d="M1.03997998,62.4586466 L121.695589,62.4586466"></path>
                            </g>
                        </g>
                    </g>
                </g>
            </g>
        </g>
    </g>
</svg>