<svg width="312" height="271" viewBox="0 0 312 271" xmlns="http://www.w3.org/2000/svg" xmlns:xlink="http://www.w3.org/1999/xlink"><title>Logo</title><defs><path id="a" d="M61.36 0l61.358 110.446H0z"/><path id="c" d="M61.36 0l61.358 104.31H0z"/></defs><g fill="none" fill-rule="evenodd"><path d="M77.9.885h155.77l77.887 134.9-77.886 134.902H77.9L.017 135.787 77.9.884z" fill="#C52D29"/><path d="M95.004 26.51h123.74l61.87 107.16-61.87 107.164H95.005L33.134 133.67l61.87-107.16z" stroke="#1A232E" stroke-width="3" fill="#FFCA25"/><g transform="translate(96.243 25.998)"><mask id="b" fill="#fff"><use xlink:href="#a"/></mask><use stroke="#1A232E" fill="#C52D29" transform="matrix(1 0 0 -1 0 110.446)" xlink:href="#a"/><g mask="url(#b)" stroke-linecap="square" stroke="#1A232E"><path d="M1.04 20.01h120.656M1.04 39.227h120.656M1.04 58.445h120.656M1.04 80.866h120.656"/></g></g><g transform="translate(96.243 136.444)"><mask id="d" fill="#fff"><use xlink:href="#c"/></mask><use stroke="#1A232E" fill="#C52D29" xlink:href="#c"/><g mask="url(#d)" stroke-linecap="square" stroke="#1A232E"><path d="M1.04 22.054h120.656M1.04 41.272h120.656M1.04 60.49h120.656M1.04 82.912h120.656"/></g></g></g></svg>